<svg id="Layer_1" data-name="Layer 1" xmlns="http://www.w3.org/2000/svg" viewBox="0 0 1000 489.64"><defs><style>.cls-1{fill:#10a500;}.cls-2{fill:#6fff90;}</style></defs><path class="cls-1" d="M499.67,92.19c-5.42,16.8-92.78-.48-89.44,40.73,1.52,18.71,25.28,40,22.88,42.43-2.78,2.87-43-21.28-40.23-50.16,2-21.47,23.19-31.18,55.75-42.38,12.85-4.42,38.24-13.16,47.6-2.47C498.62,83.06,501.07,87.84,499.67,92.19Z"/><ellipse class="cls-1" cx="430.04" cy="132.43" rx="5.94" ry="7.74" transform="translate(207.06 523.27) rotate(-77.41)"/><path class="cls-2" d="M516.41,97.8c-17.26,3.7-46-80.59-80-57.1-15.45,10.68-22,41.88-25.3,41-3.88-1-3.06-47.85,23.32-59.93,19.6-9,38.6,4.5,64.58,27.09,10.25,8.92,30.51,26.54,25.94,40C523.79,92.32,520.88,96.84,516.41,97.8Z"/><ellipse class="cls-2" cx="446.75" cy="57.62" rx="5.94" ry="7.74" transform="translate(3.23 136.31) rotate(-17.41)"/><path class="cls-1" d="M519.93,115.1C508.09,102,566.74,35,529.38,17.28c-17-8-47.25,1.91-48.19-1.4C480.1,12,521.1-10.68,544.75,6.12c17.57,12.48,15.4,35.67,8.82,69.47-2.59,13.34-7.72,39.7-21.66,42.46C528.36,118.76,523,118.49,519.93,115.1Z"/><ellipse class="cls-1" cx="519.89" cy="34.68" rx="7.74" ry="5.94" transform="translate(142.53 393.97) rotate(-47.41)"/><path class="cls-2" d="M506.7,126.8c5.42-16.8,92.78.48,89.44-40.73-1.52-18.72-25.28-40-22.88-42.43,2.78-2.87,43,21.28,40.23,50.16-2,21.47-23.19,31.18-55.75,42.38-12.84,4.42-38.24,13.16-47.6,2.47C507.75,135.93,505.3,131.15,506.7,126.8Z"/><ellipse class="cls-2" cx="576.33" cy="86.56" rx="5.94" ry="7.74" transform="translate(366.23 630.16) rotate(-77.41)"/><path class="cls-1" d="M490,121.19c17.26-3.7,46,80.59,80,57.1,15.45-10.68,22-41.88,25.3-41,3.88,1,3.06,47.85-23.32,59.93-19.6,9-38.6-4.5-64.58-27.1-10.25-8.91-30.51-26.53-25.94-40C482.58,126.67,485.49,122.15,490,121.19Z"/><ellipse class="cls-1" cx="559.62" cy="161.37" rx="5.94" ry="7.74" transform="translate(-22.65 174.84) rotate(-17.41)"/><path class="cls-2" d="M486.44,103.89C498.28,117,439.63,184,477,201.71c17,8,47.25-1.92,48.19,1.4,1.09,3.85-39.91,26.56-63.56,9.76-17.57-12.49-15.4-35.68-8.82-69.47,2.59-13.34,7.72-39.7,21.66-42.46C478,100.23,483.37,100.5,486.44,103.89Z"/><ellipse class="cls-2" cx="486.48" cy="184.31" rx="7.74" ry="5.94" transform="translate(21.57 417.73) rotate(-47.41)"/><path class="cls-1" d="M310.55,253.82a43.56,43.56,0,0,1,11.35,1.28,21.44,21.44,0,0,1,7.73,3.64,14.26,14.26,0,0,1,4.41,5.73,19.6,19.6,0,0,1,1.4,7.57,15.08,15.08,0,0,1-.7,4.62,13.49,13.49,0,0,1-2.17,4.12,16.29,16.29,0,0,1-3.74,3.48,22.75,22.75,0,0,1-5.39,2.65q13.92,3.18,13.91,15.24a19.63,19.63,0,0,1-1.63,8.05,17.79,17.79,0,0,1-4.76,6.37,22.79,22.79,0,0,1-7.71,4.19,33.24,33.24,0,0,1-10.46,1.52h-25.5V253.82Zm-10.7,9.85v19.78h10q6.43,0,9.74-2.36t3.29-7.53q0-5.35-3-7.62c-2-1.52-5.11-2.27-9.34-2.27Zm12.71,48.66a17.57,17.57,0,0,0,5.88-.85,10.11,10.11,0,0,0,3.81-2.27,8.31,8.31,0,0,0,2.05-3.32,12.63,12.63,0,0,0,.63-4,10.76,10.76,0,0,0-.7-4,7.62,7.62,0,0,0-2.19-3,10.28,10.28,0,0,0-3.86-1.92,21.22,21.22,0,0,0-5.67-.66H299.85v20.07Z"/><path class="cls-1" d="M360.71,282.13a20.73,20.73,0,0,1,5.32-6.84,11.23,11.23,0,0,1,7.29-2.49,8.8,8.8,0,0,1,5.32,1.47l-.75,8.76a2.22,2.22,0,0,1-.68,1.21,1.87,1.87,0,0,1-1.19.35,13.16,13.16,0,0,1-2.07-.24,16.76,16.76,0,0,0-2.69-.23,9.52,9.52,0,0,0-3.41.57,8.28,8.28,0,0,0-2.68,1.63,11,11,0,0,0-2.11,2.58,26.42,26.42,0,0,0-1.7,3.45v29.93H349.82V273.7h6.78a3.66,3.66,0,0,1,2.47.64,3.74,3.74,0,0,1,.93,2.3Z"/><path class="cls-1" d="M401.94,259.55a6.68,6.68,0,0,1-.61,2.84,7.85,7.85,0,0,1-1.61,2.32,7.65,7.65,0,0,1-2.35,1.58,7.1,7.1,0,0,1-2.9.59,6.81,6.81,0,0,1-2.83-.59,7.59,7.59,0,0,1-2.31-1.58,7.89,7.89,0,0,1-1.56-2.32,7,7,0,0,1-.59-2.84,7.42,7.42,0,0,1,.59-2.94,7.75,7.75,0,0,1,1.56-2.37,7.59,7.59,0,0,1,2.31-1.58,6.81,6.81,0,0,1,2.83-.59,7.1,7.1,0,0,1,2.9.59,7.5,7.5,0,0,1,4,4A7.1,7.1,0,0,1,401.94,259.55Zm-1.59,14.15v48.58H388.77V273.7Z"/><path class="cls-1" d="M457.89,275.36v4.35c0,1.39-.82,2.25-2.48,2.56l-4.29.81a15,15,0,0,1,1,5.49,14.61,14.61,0,0,1-1.43,6.51,14.36,14.36,0,0,1-3.94,4.94,18.32,18.32,0,0,1-6,3.15,25.5,25.5,0,0,1-10.11,1c-.87-.09-1.72-.22-2.57-.38-1.49.92-2.24,1.95-2.24,3.08a2.29,2.29,0,0,0,1.33,2.16,11.09,11.09,0,0,0,3.53,1,49.62,49.62,0,0,0,5,.35c1.86.05,3.78.15,5.74.31a45,45,0,0,1,5.75.83,16.67,16.67,0,0,1,5,1.87,9.81,9.81,0,0,1,3.53,3.48,10.74,10.74,0,0,1,1.33,5.65,13.38,13.38,0,0,1-1.57,6.25,16.69,16.69,0,0,1-4.53,5.4,23.3,23.3,0,0,1-7.28,3.81,31,31,0,0,1-9.83,1.45,37,37,0,0,1-9.43-1.07,22.32,22.32,0,0,1-6.68-2.84,12.12,12.12,0,0,1-4-4.09,9.74,9.74,0,0,1-1.31-4.83,8.31,8.31,0,0,1,2-5.71,14.19,14.19,0,0,1,5.58-3.67,8,8,0,0,1-3-2.65,7.61,7.61,0,0,1-1.12-4.35,7,7,0,0,1,.39-2.25,10,10,0,0,1,1.17-2.3,11,11,0,0,1,1.94-2.15,13.42,13.42,0,0,1,2.75-1.83,15.23,15.23,0,0,1-5.72-5.3,14.36,14.36,0,0,1-2.08-7.76,14.35,14.35,0,0,1,5.4-11.48,17.7,17.7,0,0,1,6-3.15,25.18,25.18,0,0,1,7.59-1.09,24.87,24.87,0,0,1,5.79.64,19.24,19.24,0,0,1,4.95,1.87ZM446.4,324.45a3.28,3.28,0,0,0-.84-2.32,5.46,5.46,0,0,0-2.29-1.39,16.84,16.84,0,0,0-3.38-.74c-1.3-.15-2.67-.27-4.11-.35l-4.49-.22c-1.54-.06-3-.18-4.5-.37a10.75,10.75,0,0,0-3.11,2.55,5.29,5.29,0,0,0-1.19,3.41,4.77,4.77,0,0,0,.63,2.39,5.33,5.33,0,0,0,2,1.92,11.77,11.77,0,0,0,3.57,1.25,32,32,0,0,0,10.93,0,13.24,13.24,0,0,0,3.85-1.38,5.83,5.83,0,0,0,2.22-2.08A5.1,5.1,0,0,0,446.4,324.45Zm-13-27.65a10.6,10.6,0,0,0,3.74-.59,7.29,7.29,0,0,0,2.64-1.63,6.59,6.59,0,0,0,1.58-2.51,9.26,9.26,0,0,0,.54-3.22,7.67,7.67,0,0,0-2.12-5.7q-2.13-2.11-6.38-2.11c-2.83,0-5,.7-6.37,2.11a7.64,7.64,0,0,0-2.13,5.7,9.06,9.06,0,0,0,.54,3.17,6.77,6.77,0,0,0,4.25,4.19A10.58,10.58,0,0,0,433.37,296.8Z"/><path class="cls-1" d="M480.45,278.91a25,25,0,0,1,6.16-4.31,17.71,17.71,0,0,1,7.89-1.66,17,17,0,0,1,7,1.35,13.76,13.76,0,0,1,5.07,3.79,16.87,16.87,0,0,1,3.08,5.82,25.14,25.14,0,0,1,1.05,7.46v30.92H499.13V291.36c0-3-.67-5.26-2-6.89S493.74,282,491,282a11.81,11.81,0,0,0-5.6,1.38,19.69,19.69,0,0,0-4.95,3.74v35.13H468.91V251.92h11.54Z"/><path class="cls-1" d="M540.65,323q-6.27,0-9.6-3.57t-3.34-9.87V282.46h-4.9a2.18,2.18,0,0,1-1.59-.62,2.39,2.39,0,0,1-.66-1.84v-4.64l7.71-1.28,2.43-13.26a2.52,2.52,0,0,1,.89-1.46,2.58,2.58,0,0,1,1.68-.52h6v15.29H552v8.33h-12.8v26.32a5.27,5.27,0,0,0,1.1,3.55,3.74,3.74,0,0,0,3,1.28,5.44,5.44,0,0,0,1.8-.26,9.52,9.52,0,0,0,1.26-.54c.36-.19.68-.37,1-.55a1.61,1.61,0,0,1,.84-.26,1.34,1.34,0,0,1,.84.26,4.3,4.3,0,0,1,.7.78l3.46,5.68a17.27,17.27,0,0,1-5.79,3.22A21.19,21.19,0,0,1,540.65,323Z"/><path class="cls-1" d="M604.53,311.77v10.51H565V253.82h12.56v57.95Z"/><path class="cls-1" d="M629,259.55a6.83,6.83,0,0,1-.61,2.84,8,8,0,0,1-1.61,2.32,7.7,7.7,0,0,1-2.36,1.58,7.06,7.06,0,0,1-2.9.59,6.79,6.79,0,0,1-2.82-.59,7.35,7.35,0,0,1-2.31-1.58,7.73,7.73,0,0,1-1.57-2.32,7,7,0,0,1-.58-2.84,7.42,7.42,0,0,1,.58-2.94,7.6,7.6,0,0,1,1.57-2.37,7.35,7.35,0,0,1,2.31-1.58,6.79,6.79,0,0,1,2.82-.59,7.06,7.06,0,0,1,2.9.59,7.7,7.7,0,0,1,2.36,1.58,7.88,7.88,0,0,1,1.61,2.37A7.27,7.27,0,0,1,629,259.55Zm-1.59,14.15v48.58H615.79V273.7Z"/><path class="cls-1" d="M646.24,322.28V282.51l-4.16-.67a4.73,4.73,0,0,1-2.17-1,2.39,2.39,0,0,1-.82-2v-4.78h7.15v-3.6a21.38,21.38,0,0,1,1.23-7.48,15.59,15.59,0,0,1,3.55-5.63,15.32,15.32,0,0,1,5.63-3.55,21.13,21.13,0,0,1,7.47-1.24,20.4,20.4,0,0,1,6.17.9l-.24,5.87a1.83,1.83,0,0,1-.37,1.07,2.08,2.08,0,0,1-.86.61,4.43,4.43,0,0,1-1.24.29,14.25,14.25,0,0,1-1.5.07,13.58,13.58,0,0,0-3.66.45,6.09,6.09,0,0,0-2.73,1.56,7.06,7.06,0,0,0-1.71,2.94,15,15,0,0,0-.58,4.52v3.22h12.47v8.33h-12.1v39.82Z"/><path class="cls-1" d="M687.71,299.46a23.28,23.28,0,0,0,1.3,6.46,13.47,13.47,0,0,0,2.71,4.5,10.66,10.66,0,0,0,4,2.65,14.38,14.38,0,0,0,5.11.87,15.66,15.66,0,0,0,4.83-.66,21.72,21.72,0,0,0,3.55-1.47c1-.53,1.9-1,2.66-1.47a4.48,4.48,0,0,1,2.22-.66,2.39,2.39,0,0,1,2.15,1.09l3.32,4.26a19.08,19.08,0,0,1-4.3,3.81,23.69,23.69,0,0,1-5,2.46,27.18,27.18,0,0,1-5.28,1.31,37.72,37.72,0,0,1-5.21.38,25.27,25.27,0,0,1-9.29-1.69,20.57,20.57,0,0,1-7.47-5,23.18,23.18,0,0,1-5-8.14A31.73,31.73,0,0,1,676.22,297a27.16,27.16,0,0,1,1.59-9.35,22.46,22.46,0,0,1,4.55-7.63,21.44,21.44,0,0,1,7.24-5.13,23.59,23.59,0,0,1,9.64-1.9,23.13,23.13,0,0,1,8.36,1.47,18.27,18.27,0,0,1,6.59,4.29,20,20,0,0,1,4.32,6.91,26.15,26.15,0,0,1,1.56,9.35,7.69,7.69,0,0,1-.56,3.57,2.3,2.3,0,0,1-2.15.93Zm22-7.06a14.25,14.25,0,0,0-.63-4.28,10.26,10.26,0,0,0-1.89-3.53,8.78,8.78,0,0,0-3.2-2.39,10.88,10.88,0,0,0-4.5-.88,10.6,10.6,0,0,0-7.87,2.89,14.25,14.25,0,0,0-3.67,8.19Z"/><path class="cls-1" d="M12.78,357.83v18.94H36.42v9.77H12.78v19.32h30V416H.17V347.72h42.6v10.11Z"/><path class="cls-1" d="M65.66,373.51a31.36,31.36,0,0,1,3-2.72,19.55,19.55,0,0,1,3.41-2.12,18.75,18.75,0,0,1,8.34-1.87,17,17,0,0,1,7,1.35,13.68,13.68,0,0,1,5.07,3.78,16.68,16.68,0,0,1,3.08,5.8,25.05,25.05,0,0,1,1.05,7.44V416H85.09V385.17q0-4.44-2-6.87T77,375.87a12,12,0,0,0-5.61,1.37A20.25,20.25,0,0,0,66.4,381v35H54.87V367.56h7.05a2.84,2.84,0,0,1,2.94,2.12Z"/><path class="cls-1" d="M122.92,372.75a25.21,25.21,0,0,1,6.16-4.3,17.72,17.72,0,0,1,7.9-1.65,16.93,16.93,0,0,1,7,1.35,13.52,13.52,0,0,1,5.07,3.78,16.52,16.52,0,0,1,3.08,5.8,25,25,0,0,1,1.06,7.44V416H141.6V385.17q0-4.44-2-6.87t-6.12-2.43a11.92,11.92,0,0,0-5.6,1.37,19.88,19.88,0,0,0-5,3.73v35H111.38V345.83h11.54Z"/><path class="cls-1" d="M166.77,374.31a28.27,28.27,0,0,1,19.9-7.65,19.24,19.24,0,0,1,7.52,1.39,15.76,15.76,0,0,1,5.6,3.88,16.42,16.42,0,0,1,3.48,5.92,22.88,22.88,0,0,1,1.19,7.56V416h-5.23a5.24,5.24,0,0,1-2.52-.49,3.43,3.43,0,0,1-1.4-2l-1-3.49a40.91,40.91,0,0,1-3.55,2.9,20.13,20.13,0,0,1-3.59,2.1,19.12,19.12,0,0,1-4,1.3,22.63,22.63,0,0,1-4.69.45,18.28,18.28,0,0,1-5.61-.83,12.09,12.09,0,0,1-4.43-2.48,11.15,11.15,0,0,1-2.9-4.1,14.86,14.86,0,0,1-1-5.72,11.61,11.61,0,0,1,.61-3.66,10.63,10.63,0,0,1,2-3.47,16.61,16.61,0,0,1,3.57-3.12,23.54,23.54,0,0,1,5.39-2.55,47.3,47.3,0,0,1,7.45-1.77,74,74,0,0,1,9.72-.83v-2.83q0-4.86-2.06-7.2a7.48,7.48,0,0,0-5.93-2.34,14,14,0,0,0-4.65.66,18.82,18.82,0,0,0-3.24,1.49l-2.55,1.49a5,5,0,0,1-2.54.66,3.29,3.29,0,0,1-2.06-.64,5.29,5.29,0,0,1-1.35-1.49Zm26.44,21a64.34,64.34,0,0,0-8.41.87,22.49,22.49,0,0,0-5.46,1.63,7.15,7.15,0,0,0-3,2.32,5.06,5.06,0,0,0-.88,2.88c0,2,.6,3.51,1.79,4.39a7.76,7.76,0,0,0,4.7,1.32,13.52,13.52,0,0,0,6.14-1.3,18.17,18.17,0,0,0,5.07-3.94Z"/><path class="cls-1" d="M229.92,373.51a30.34,30.34,0,0,1,3.06-2.72,18.75,18.75,0,0,1,11.74-4,17,17,0,0,1,7,1.35,13.52,13.52,0,0,1,5.07,3.78,16.52,16.52,0,0,1,3.08,5.8,25.05,25.05,0,0,1,1.05,7.44V416H249.35V385.17q0-4.44-2-6.87t-6.12-2.43a11.92,11.92,0,0,0-5.6,1.37,19.88,19.88,0,0,0-5,3.73v35H219.13V367.56h7.05a2.83,2.83,0,0,1,2.94,2.12Z"/><path class="cls-1" d="M310,377.81a6.27,6.27,0,0,1-1,1,2.32,2.32,0,0,1-1.43.37,3.19,3.19,0,0,1-1.73-.54c-.56-.36-1.23-.77-2-1.23a16.15,16.15,0,0,0-2.78-1.23,12.77,12.77,0,0,0-4-.54,12,12,0,0,0-5.32,1.11A10,10,0,0,0,287.9,380a14.44,14.44,0,0,0-2.26,5,27.18,27.18,0,0,0-.75,6.68,26.33,26.33,0,0,0,.82,6.9,14.69,14.69,0,0,0,2.36,5.07,10.14,10.14,0,0,0,3.73,3.12,11.23,11.23,0,0,0,4.95,1.06,12.05,12.05,0,0,0,4.46-.68,14.27,14.27,0,0,0,2.88-1.51c.77-.55,1.45-1.06,2-1.51a3,3,0,0,1,1.94-.69,2.33,2.33,0,0,1,2.1,1.09l3.31,4.25a20.78,20.78,0,0,1-4.15,3.8,23.11,23.11,0,0,1-4.65,2.46,24.06,24.06,0,0,1-4.95,1.3,34.8,34.8,0,0,1-5.07.37,21.19,21.19,0,0,1-8.36-1.67,19.81,19.81,0,0,1-6.86-4.89,23.1,23.1,0,0,1-4.65-7.87,30.57,30.57,0,0,1-1.71-10.6,31.16,31.16,0,0,1,1.52-9.89,22.47,22.47,0,0,1,4.46-7.89,20.43,20.43,0,0,1,7.29-5.22,24.83,24.83,0,0,1,10-1.89,23.53,23.53,0,0,1,9.42,1.75,23,23,0,0,1,7.26,5Z"/><path class="cls-1" d="M332.53,393.25a23.11,23.11,0,0,0,1.31,6.45,13.11,13.11,0,0,0,2.71,4.48,10.58,10.58,0,0,0,4,2.65,14.44,14.44,0,0,0,5.12.87,15.71,15.71,0,0,0,4.83-.66,23.08,23.08,0,0,0,3.55-1.46c1-.54,1.9-1,2.66-1.47a4.45,4.45,0,0,1,2.22-.66,2.37,2.37,0,0,1,2.15,1.09l3.31,4.25a19,19,0,0,1-4.29,3.8,24.53,24.53,0,0,1-5,2.46,27.61,27.61,0,0,1-5.27,1.3,37.68,37.68,0,0,1-5.21.37,25.56,25.56,0,0,1-9.3-1.67,20.85,20.85,0,0,1-7.47-5,23.38,23.38,0,0,1-5-8.13A31.79,31.79,0,0,1,321,390.75a27,27,0,0,1,1.59-9.33,22.55,22.55,0,0,1,4.55-7.6,21.44,21.44,0,0,1,7.24-5.13,23.64,23.64,0,0,1,9.65-1.89,23.17,23.17,0,0,1,8.36,1.47,18.1,18.1,0,0,1,6.58,4.27,19.67,19.67,0,0,1,4.32,6.9,25.76,25.76,0,0,1,1.57,9.32,7.72,7.72,0,0,1-.56,3.57,2.33,2.33,0,0,1-2.15.92Zm22-7a14.18,14.18,0,0,0-.63-4.27,10.21,10.21,0,0,0-1.89-3.52,8.89,8.89,0,0,0-3.2-2.39,10.93,10.93,0,0,0-4.51-.87,10.63,10.63,0,0,0-7.87,2.88,14.18,14.18,0,0,0-3.66,8.17Z"/><path class="cls-1" d="M377.37,416V367.56h7.05a2.83,2.83,0,0,1,2.94,2.12l.75,3.59a28.1,28.1,0,0,1,2.64-2.6,17.7,17.7,0,0,1,2.94-2,16.34,16.34,0,0,1,3.37-1.34,14.75,14.75,0,0,1,3.94-.5,11.11,11.11,0,0,1,7.45,2.48,14.94,14.94,0,0,1,4.37,6.59,14.8,14.8,0,0,1,2.8-4.13,15.17,15.17,0,0,1,3.69-2.81,16.78,16.78,0,0,1,4.27-1.61,20.71,20.71,0,0,1,4.56-.52,18.94,18.94,0,0,1,7.05,1.23,13.53,13.53,0,0,1,5.18,3.59,15.81,15.81,0,0,1,3.21,5.76,25.45,25.45,0,0,1,1.09,7.79V416H433.13V385.17c0-3.08-.66-5.4-2-7a7.33,7.33,0,0,0-5.89-2.34,8.67,8.67,0,0,0-3.29.61,7.85,7.85,0,0,0-2.66,1.77,8,8,0,0,0-1.8,2.91,11.28,11.28,0,0,0-.65,4V416H405.25V385.17c0-3.24-.64-5.6-1.94-7.08a7.12,7.12,0,0,0-5.67-2.22,9.25,9.25,0,0,0-4.69,1.25,15.68,15.68,0,0,0-4,3.43V416Z"/><path class="cls-1" d="M468.3,393.25a23.48,23.48,0,0,0,1.31,6.45,13.27,13.27,0,0,0,2.71,4.48,10.58,10.58,0,0,0,4,2.65,14.48,14.48,0,0,0,5.12.87,15.66,15.66,0,0,0,4.83-.66,22.67,22.67,0,0,0,3.55-1.46c1-.54,1.9-1,2.66-1.47a4.48,4.48,0,0,1,2.22-.66,2.37,2.37,0,0,1,2.15,1.09l3.32,4.25a19.28,19.28,0,0,1-4.3,3.8,24.45,24.45,0,0,1-5,2.46,27.89,27.89,0,0,1-5.28,1.3,37.68,37.68,0,0,1-5.21.37,25.47,25.47,0,0,1-9.29-1.67,20.8,20.8,0,0,1-7.48-5,23.36,23.36,0,0,1-5-8.13,31.56,31.56,0,0,1-1.83-11.21,27,27,0,0,1,1.59-9.33,22.41,22.41,0,0,1,4.56-7.6,21.34,21.34,0,0,1,7.24-5.13,23.59,23.59,0,0,1,9.64-1.89,23.13,23.13,0,0,1,8.36,1.47,18.22,18.22,0,0,1,6.59,4.27,20,20,0,0,1,4.32,6.9,26,26,0,0,1,1.56,9.32,7.58,7.58,0,0,1-.56,3.57,2.32,2.32,0,0,1-2.15.92Zm22-7a14.18,14.18,0,0,0-.63-4.27,10.21,10.21,0,0,0-1.89-3.52,8.89,8.89,0,0,0-3.2-2.39,10.9,10.9,0,0,0-4.51-.87A10.63,10.63,0,0,0,472.2,378a14.25,14.25,0,0,0-3.66,8.17Z"/><path class="cls-1" d="M523.93,373.51a32.69,32.69,0,0,1,3.06-2.72,18.75,18.75,0,0,1,11.75-4,17,17,0,0,1,7,1.35,13.56,13.56,0,0,1,5.06,3.78,16.36,16.36,0,0,1,3.08,5.8,24.73,24.73,0,0,1,1.06,7.44V416H543.36V385.17q0-4.44-2-6.87t-6.12-2.43a11.92,11.92,0,0,0-5.6,1.37,19.88,19.88,0,0,0-5,3.73v35H513.14V367.56h7.05a2.85,2.85,0,0,1,2.95,2.12Z"/><path class="cls-1" d="M585,416.77q-6.27,0-9.6-3.57T572,403.36V376.29h-4.91a2.2,2.2,0,0,1-1.58-.61,2.39,2.39,0,0,1-.66-1.84v-4.63l7.71-1.28L575,354.71a2.56,2.56,0,0,1,.88-1.46,2.62,2.62,0,0,1,1.69-.52h6V368h12.8v8.31h-12.8v26.26a5.27,5.27,0,0,0,1.1,3.55,3.77,3.77,0,0,0,3,1.27,5.42,5.42,0,0,0,1.79-.26,8.5,8.5,0,0,0,1.26-.54q.54-.29,1-.54a1.53,1.53,0,0,1,.84-.26,1.28,1.28,0,0,1,.84.26,3.89,3.89,0,0,1,.7.77l3.46,5.67a17.25,17.25,0,0,1-5.79,3.21A21.19,21.19,0,0,1,585,416.77Z"/><path class="cls-1" d="M671.89,360.14a4.35,4.35,0,0,1-1.19,1.44,2.62,2.62,0,0,1-1.56.45,4,4,0,0,1-2.13-.73c-.76-.49-1.67-1-2.73-1.63a22.65,22.65,0,0,0-3.71-1.63,15.41,15.41,0,0,0-5-.73A14.68,14.68,0,0,0,651,358a9.41,9.41,0,0,0-3.29,1.77,7.08,7.08,0,0,0-2,2.71,9.12,9.12,0,0,0-.65,3.47,6.07,6.07,0,0,0,1.33,4,11.17,11.17,0,0,0,3.53,2.74,33.39,33.39,0,0,0,5,2c1.87.6,3.79,1.23,5.75,1.91a56.24,56.24,0,0,1,5.74,2.36,19.8,19.8,0,0,1,5,3.4,15.55,15.55,0,0,1,3.53,5,17.82,17.82,0,0,1,1.33,7.23,23.67,23.67,0,0,1-1.57,8.67,20.07,20.07,0,0,1-4.57,7,21.54,21.54,0,0,1-7.36,4.73,26.81,26.81,0,0,1-10,1.72,31.38,31.38,0,0,1-6.35-.64,32.33,32.33,0,0,1-6-1.82,31.82,31.82,0,0,1-5.4-2.83,26.25,26.25,0,0,1-4.48-3.68l3.69-6.1a4,4,0,0,1,1.21-1.11,3.13,3.13,0,0,1,1.59-.44,4.43,4.43,0,0,1,2.52,1c.91.65,2,1.37,3.23,2.15a24.6,24.6,0,0,0,4.36,2.15,16.57,16.57,0,0,0,6,1q5.37,0,8.31-2.57c2-1.72,2.94-4.18,2.94-7.4a6.91,6.91,0,0,0-1.33-4.39,10.9,10.9,0,0,0-3.53-2.86,26.35,26.35,0,0,0-5-2q-2.8-.79-5.7-1.74a49.36,49.36,0,0,1-5.7-2.27,18.44,18.44,0,0,1-5-3.45,15.6,15.6,0,0,1-3.52-5.31,20.44,20.44,0,0,1-1.33-7.87A19,19,0,0,1,639.06,353a20.82,20.82,0,0,1,6.91-4.39,25.2,25.2,0,0,1,9.44-1.65,31.4,31.4,0,0,1,11,1.88,24.9,24.9,0,0,1,8.59,5.29Z"/><path class="cls-1" d="M697.91,393.25a23.11,23.11,0,0,0,1.31,6.45,13,13,0,0,0,2.71,4.48,10.58,10.58,0,0,0,4,2.65,14.42,14.42,0,0,0,5.11.87,15.78,15.78,0,0,0,4.84-.66,23.5,23.5,0,0,0,3.55-1.46c1-.54,1.9-1,2.66-1.47a4.42,4.42,0,0,1,2.22-.66,2.38,2.38,0,0,1,2.15,1.09l3.31,4.25a19.23,19.23,0,0,1-4.29,3.8,24.53,24.53,0,0,1-5,2.46,27.89,27.89,0,0,1-5.28,1.3,37.53,37.53,0,0,1-5.2.37,25.52,25.52,0,0,1-9.3-1.67,20.85,20.85,0,0,1-7.47-5,23.38,23.38,0,0,1-5-8.13,31.79,31.79,0,0,1-1.82-11.21,27,27,0,0,1,1.59-9.33,22.39,22.39,0,0,1,4.55-7.6,21.44,21.44,0,0,1,7.24-5.13,23.6,23.6,0,0,1,9.65-1.89,23.21,23.21,0,0,1,8.36,1.47,18.18,18.18,0,0,1,6.58,4.27,19.67,19.67,0,0,1,4.32,6.9,26,26,0,0,1,1.57,9.32,7.72,7.72,0,0,1-.56,3.57,2.33,2.33,0,0,1-2.15.92Zm22-7a14.18,14.18,0,0,0-.63-4.27,10.21,10.21,0,0,0-1.89-3.52,9,9,0,0,0-3.2-2.39,11,11,0,0,0-4.51-.87,10.61,10.61,0,0,0-7.87,2.88,14.19,14.19,0,0,0-3.67,8.17Z"/><path class="cls-1" d="M753.63,376a20.87,20.87,0,0,1,5.32-6.82,11.31,11.31,0,0,1,7.29-2.48,8.85,8.85,0,0,1,5.32,1.46l-.74,8.74a2.29,2.29,0,0,1-.68,1.21,1.89,1.89,0,0,1-1.19.35,13.25,13.25,0,0,1-2.08-.24,16.66,16.66,0,0,0-2.69-.23,9.79,9.79,0,0,0-3.41.56,8.76,8.76,0,0,0-2.68,1.63,10.77,10.77,0,0,0-2.1,2.58,24.64,24.64,0,0,0-1.71,3.45V416H742.75V367.56h6.77a3.71,3.71,0,0,1,2.47.63,3.8,3.8,0,0,1,.94,2.3Z"/><path class="cls-1" d="M828.36,367.56l-19,48.45H798.89l-19-48.45h9.52a3.67,3.67,0,0,1,2.18.61,2.93,2.93,0,0,1,1.14,1.56L802,395.61c.5,1.51.93,3,1.31,4.44s.7,2.9,1,4.35q.47-2.17,1-4.35c.38-1.45.83-2.93,1.36-4.44l9.43-25.88a3.21,3.21,0,0,1,1.17-1.56,3.31,3.31,0,0,1,2-.61Z"/><path class="cls-1" d="M851.85,353.44a6.64,6.64,0,0,1-.61,2.83,7.67,7.67,0,0,1-1.61,2.31,7.78,7.78,0,0,1-2.36,1.59,7.22,7.22,0,0,1-2.89.59,7,7,0,0,1-2.83-.59,7.55,7.55,0,0,1-2.31-1.59,7.74,7.74,0,0,1-1.57-2.31,6.92,6.92,0,0,1-.58-2.83,7.37,7.37,0,0,1,.58-2.93,7.49,7.49,0,0,1,1.57-2.36,7.38,7.38,0,0,1,2.31-1.59,7,7,0,0,1,2.83-.59,7.22,7.22,0,0,1,2.89.59,7.61,7.61,0,0,1,2.36,1.59,7.43,7.43,0,0,1,1.61,2.36A7.06,7.06,0,0,1,851.85,353.44Zm-1.59,14.12V416H838.68V367.56Z"/><path class="cls-1" d="M900.19,377.81a6.27,6.27,0,0,1-1,1,2.34,2.34,0,0,1-1.43.37,3.17,3.17,0,0,1-1.73-.54c-.56-.36-1.23-.77-2-1.23a16.15,16.15,0,0,0-2.78-1.23,12.77,12.77,0,0,0-4-.54,12,12,0,0,0-5.32,1.11,10,10,0,0,0-3.81,3.19,14.26,14.26,0,0,0-2.26,5,27.18,27.18,0,0,0-.75,6.68,26.33,26.33,0,0,0,.82,6.9,14.69,14.69,0,0,0,2.36,5.07,10.14,10.14,0,0,0,3.73,3.12,11.23,11.23,0,0,0,5,1.06,12.05,12.05,0,0,0,4.46-.68,14.27,14.27,0,0,0,2.88-1.51c.77-.55,1.45-1.06,2-1.51a3,3,0,0,1,1.94-.69,2.33,2.33,0,0,1,2.1,1.09l3.31,4.25a20.78,20.78,0,0,1-4.15,3.8,23.11,23.11,0,0,1-4.65,2.46,24.23,24.23,0,0,1-4.95,1.3,34.8,34.8,0,0,1-5.07.37,21.19,21.19,0,0,1-8.36-1.67,19.94,19.94,0,0,1-6.87-4.89,23.24,23.24,0,0,1-4.64-7.87,30.57,30.57,0,0,1-1.71-10.6,31.16,31.16,0,0,1,1.52-9.89,22.47,22.47,0,0,1,4.46-7.89,20.43,20.43,0,0,1,7.29-5.22,24.79,24.79,0,0,1,10-1.89,23.44,23.44,0,0,1,9.41,1.75,22.9,22.9,0,0,1,7.27,5Z"/><path class="cls-1" d="M922.75,393.25a23.11,23.11,0,0,0,1.31,6.45,13.11,13.11,0,0,0,2.71,4.48,10.58,10.58,0,0,0,4,2.65,14.42,14.42,0,0,0,5.11.87,15.78,15.78,0,0,0,4.84-.66,23.08,23.08,0,0,0,3.55-1.46c1-.54,1.9-1,2.66-1.47a4.42,4.42,0,0,1,2.22-.66,2.38,2.38,0,0,1,2.15,1.09l3.31,4.25a19.23,19.23,0,0,1-4.29,3.8,24.53,24.53,0,0,1-5,2.46,27.89,27.89,0,0,1-5.28,1.3,37.53,37.53,0,0,1-5.2.37,25.52,25.52,0,0,1-9.3-1.67,20.85,20.85,0,0,1-7.47-5,23.38,23.38,0,0,1-5-8.13,31.79,31.79,0,0,1-1.82-11.21,27,27,0,0,1,1.59-9.33,22.55,22.55,0,0,1,4.55-7.6,21.44,21.44,0,0,1,7.24-5.13,23.64,23.64,0,0,1,9.65-1.89,23.17,23.17,0,0,1,8.36,1.47,18.18,18.18,0,0,1,6.58,4.27,19.67,19.67,0,0,1,4.32,6.9,25.76,25.76,0,0,1,1.57,9.32,7.72,7.72,0,0,1-.56,3.57,2.33,2.33,0,0,1-2.15.92Zm22-7a14.18,14.18,0,0,0-.63-4.27,10.21,10.21,0,0,0-1.89-3.52A8.89,8.89,0,0,0,939,376a11,11,0,0,0-4.51-.87,10.63,10.63,0,0,0-7.87,2.88,14.25,14.25,0,0,0-3.67,8.17Z"/><path class="cls-1" d="M996.83,377a3.15,3.15,0,0,1-1,1.07,2.53,2.53,0,0,1-1.3.3,4,4,0,0,1-1.8-.47c-.64-.31-1.38-.67-2.22-1.06a19,19,0,0,0-2.87-1.06,13.48,13.48,0,0,0-3.81-.48,8.67,8.67,0,0,0-5.35,1.47,4.57,4.57,0,0,0-1.94,3.82,3.65,3.65,0,0,0,1,2.62,9.16,9.16,0,0,0,2.66,1.87,26.17,26.17,0,0,0,3.76,1.44c1.4.43,2.83.89,4.27,1.39s2.88,1.08,4.28,1.73a15,15,0,0,1,3.76,2.45,11.54,11.54,0,0,1,2.66,3.57,11.39,11.39,0,0,1,1,5,16.57,16.57,0,0,1-1.23,6.44,13.94,13.94,0,0,1-3.67,5.1,17.26,17.26,0,0,1-6,3.36,27.86,27.86,0,0,1-13.08.75,28,28,0,0,1-4.53-1.25,24,24,0,0,1-4-1.89,19,19,0,0,1-3.24-2.36l2.66-4.44a3.75,3.75,0,0,1,1.21-1.23,3.42,3.42,0,0,1,1.78-.42,3.7,3.7,0,0,1,2,.61q1,.62,2.22,1.32a18.9,18.9,0,0,0,3,1.33,12.85,12.85,0,0,0,4.32.61,11.06,11.06,0,0,0,3.52-.5,7.37,7.37,0,0,0,2.43-1.3,4.73,4.73,0,0,0,1.4-1.86,5.59,5.59,0,0,0,.45-2.2,3.93,3.93,0,0,0-1-2.78,8.67,8.67,0,0,0-2.66-1.89,24.9,24.9,0,0,0-3.78-1.44c-1.42-.43-2.87-.89-4.35-1.4a38,38,0,0,1-4.34-1.77,14.64,14.64,0,0,1-3.79-2.57,11.78,11.78,0,0,1-2.66-3.83,13.45,13.45,0,0,1-1-5.48,14,14,0,0,1,1.17-5.66,13.15,13.15,0,0,1,3.43-4.7,16.88,16.88,0,0,1,5.65-3.21,23.1,23.1,0,0,1,7.82-1.21,23.79,23.79,0,0,1,9,1.65,20.4,20.4,0,0,1,6.77,4.35Z"/><path class="cls-1" d="M0,449.82H3.09V463H18.83V449.82h3.09v31.34H18.83V466H3.09v15.13H0Z"/><path class="cls-1" d="M51.14,457.39a11.25,11.25,0,0,1,8.76,3.87,12.56,12.56,0,0,1-.18,16.86,11.09,11.09,0,0,1-8.58,3.64,11.15,11.15,0,0,1-8.6-3.64,12.55,12.55,0,0,1-.17-16.84A11.22,11.22,0,0,1,51.14,457.39Zm0,2.91a8.45,8.45,0,0,0-6.3,2.75,9.25,9.25,0,0,0-2.64,6.65,9.54,9.54,0,0,0,1.2,4.69,8.67,8.67,0,0,0,7.74,4.53,8.85,8.85,0,0,0,4.5-1.18,8.63,8.63,0,0,0,3.24-3.35,9.45,9.45,0,0,0,1.21-4.69,9.26,9.26,0,0,0-2.65-6.65A8.46,8.46,0,0,0,51.13,460.3Z"/><path class="cls-1" d="M79.42,449h3v32.13h-3Z"/><path class="cls-1" d="M100.86,448.44a2.34,2.34,0,0,1,1.72.72,2.49,2.49,0,0,1,0,3.48,2.34,2.34,0,0,1-1.72.72,2.29,2.29,0,0,1-1.69-.72,2.49,2.49,0,0,1,0-3.48A2.29,2.29,0,0,1,100.86,448.44ZM99.4,458h2.94v23.18H99.4Z"/><path class="cls-1" d="M131.32,460.52l-1.89,2a6.76,6.76,0,0,0-4.62-2.32,3.49,3.49,0,0,0-2.45.95,3,3,0,0,0-1,2.24,3.32,3.32,0,0,0,.84,2.15,11.58,11.58,0,0,0,3.54,2.45,13.17,13.17,0,0,1,4.46,3.33,6.12,6.12,0,0,1,1.16,3.64,6.59,6.59,0,0,1-2,4.84,6.71,6.71,0,0,1-4.94,2,8.46,8.46,0,0,1-3.78-.88,8.16,8.16,0,0,1-3-2.4l1.85-2.13a6.41,6.41,0,0,0,4.78,2.57,4.26,4.26,0,0,0,3-1.15,3.55,3.55,0,0,0,1.24-2.7,3.49,3.49,0,0,0-.82-2.28,12.84,12.84,0,0,0-3.7-2.47,12,12,0,0,1-4.22-3.2,6.09,6.09,0,0,1-1.11-3.6,5.89,5.89,0,0,1,1.78-4.39,6.15,6.15,0,0,1,4.49-1.74Q128.13,457.39,131.32,460.52Z"/><path class="cls-1" d="M150.46,449.38h2.94V458h4.66v2.58H153.4v20.6h-2.94v-20.6h-4V458h4Z"/><path class="cls-1" d="M174.86,448.44a2.3,2.3,0,0,1,1.71.72,2.46,2.46,0,0,1,0,3.48,2.38,2.38,0,0,1-3.41,0,2.49,2.49,0,0,1,0-3.48A2.31,2.31,0,0,1,174.86,448.44ZM173.4,458h2.94v23.18H173.4Z"/><path class="cls-1" d="M216,462.8l-2.33,1.47a9.72,9.72,0,0,0-8.25-4.07,9.49,9.49,0,0,0-6.94,2.72,9,9,0,0,0-2.76,6.62,9.47,9.47,0,0,0,1.27,4.77,8.93,8.93,0,0,0,3.49,3.46,10.42,10.42,0,0,0,13.19-2.83l2.33,1.55a11.06,11.06,0,0,1-4.4,3.89,13.9,13.9,0,0,1-6.3,1.38,12.34,12.34,0,0,1-9-3.5,11.44,11.44,0,0,1-3.57-8.5,12.22,12.22,0,0,1,1.67-6.25A11.84,11.84,0,0,1,199,459a13.37,13.37,0,0,1,6.54-1.61,13.76,13.76,0,0,1,4.38.7,12.16,12.16,0,0,1,3.58,1.83A9.89,9.89,0,0,1,216,462.8Z"/><path class="cls-1" d="M279.09,458v23.18h-2.9v-4a12.72,12.72,0,0,1-4.16,3.43,11.47,11.47,0,0,1-13.32-2.42,12,12,0,0,1-3.43-8.68,11.85,11.85,0,0,1,3.46-8.57,11.23,11.23,0,0,1,8.35-3.55,10.66,10.66,0,0,1,5.09,1.21,11.67,11.67,0,0,1,4,3.64V458Zm-11.76,2.28a8.77,8.77,0,0,0-4.54,1.23,8.93,8.93,0,0,0-3.3,3.43,9.48,9.48,0,0,0,0,9.36,9,9,0,0,0,3.32,3.48,8.65,8.65,0,0,0,4.49,1.25,9,9,0,0,0,4.57-1.24,8.55,8.55,0,0,0,3.33-3.34,9.57,9.57,0,0,0,1.16-4.74,9.33,9.33,0,0,0-2.61-6.73A8.6,8.6,0,0,0,267.33,460.26Z"/><path class="cls-1" d="M297.11,458h2.94v4.26a11.85,11.85,0,0,1,4-3.64,10.54,10.54,0,0,1,5.06-1.21,11.22,11.22,0,0,1,8.34,3.55,11.85,11.85,0,0,1,3.46,8.57,12,12,0,0,1-3.43,8.68,11.44,11.44,0,0,1-13.3,2.42,12.66,12.66,0,0,1-4.14-3.43v12.46h-2.94Zm11.77,2.28a8.59,8.59,0,0,0-6.43,2.7,9.33,9.33,0,0,0-2.61,6.73,9.57,9.57,0,0,0,1.17,4.74,8.42,8.42,0,0,0,3.33,3.34,9.06,9.06,0,0,0,4.58,1.24,8.59,8.59,0,0,0,4.46-1.25,9.12,9.12,0,0,0,3.32-3.48,9.48,9.48,0,0,0,0-9.36,8.93,8.93,0,0,0-3.3-3.43A8.76,8.76,0,0,0,308.88,460.26Z"/><path class="cls-1" d="M337.83,458h2.94v4.26a11.85,11.85,0,0,1,4-3.64,10.54,10.54,0,0,1,5.06-1.21,11.22,11.22,0,0,1,8.34,3.55,11.85,11.85,0,0,1,3.46,8.57,12,12,0,0,1-3.43,8.68,11.44,11.44,0,0,1-13.3,2.42,12.66,12.66,0,0,1-4.14-3.43v12.46h-2.94Zm11.77,2.28a8.6,8.6,0,0,0-6.43,2.7,9.33,9.33,0,0,0-2.61,6.73,9.57,9.57,0,0,0,1.17,4.74,8.42,8.42,0,0,0,3.33,3.34,9.06,9.06,0,0,0,4.58,1.24,8.57,8.57,0,0,0,4.46-1.25,9,9,0,0,0,3.32-3.48,9.48,9.48,0,0,0,0-9.36,8.93,8.93,0,0,0-3.3-3.43A8.76,8.76,0,0,0,349.6,460.26Z"/><path class="cls-1" d="M377.4,458h3v3.39a10.52,10.52,0,0,1,2.84-3,5.53,5.53,0,0,1,3.11-1,5.33,5.33,0,0,1,2.6.78l-1.53,2.52a4.06,4.06,0,0,0-1.55-.41,4.2,4.2,0,0,0-2.84,1.23,7.68,7.68,0,0,0-2.08,3.8,36.49,36.49,0,0,0-.55,8v7.84h-3Z"/><path class="cls-1" d="M413.64,457.39a11.28,11.28,0,0,1,8.76,3.87,12.56,12.56,0,0,1-.18,16.86,12,12,0,0,1-17.18,0,12.53,12.53,0,0,1-.18-16.84A11.24,11.24,0,0,1,413.64,457.39Zm0,2.91a8.45,8.45,0,0,0-6.31,2.75,9.28,9.28,0,0,0-2.63,6.65,9.54,9.54,0,0,0,1.2,4.69,8.59,8.59,0,0,0,3.25,3.35,9.13,9.13,0,0,0,9,0,8.59,8.59,0,0,0,3.25-3.35,9.54,9.54,0,0,0,1.2-4.69,9.22,9.22,0,0,0-2.65-6.65A8.44,8.44,0,0,0,413.63,460.3Z"/><path class="cls-1" d="M465.14,458v23.18h-2.9v-4a12.59,12.59,0,0,1-4.15,3.43,11.47,11.47,0,0,1-13.32-2.42,12.05,12.05,0,0,1-3.44-8.68,11.86,11.86,0,0,1,3.47-8.57,11.22,11.22,0,0,1,8.34-3.55,10.67,10.67,0,0,1,5.1,1.21,11.64,11.64,0,0,1,4,3.64V458Zm-11.76,2.28a8.76,8.76,0,0,0-4.53,1.23,8.88,8.88,0,0,0-3.31,3.43,9.55,9.55,0,0,0,0,9.36,9.14,9.14,0,0,0,3.33,3.48,8.61,8.61,0,0,0,4.48,1.25,9,9,0,0,0,4.58-1.24,8.55,8.55,0,0,0,3.33-3.34,9.67,9.67,0,0,0,1.16-4.74,9.33,9.33,0,0,0-2.61-6.73A8.61,8.61,0,0,0,453.38,460.26Z"/><path class="cls-1" d="M505.32,462.8,503,464.27a9.7,9.7,0,0,0-8.25-4.07,9.48,9.48,0,0,0-6.93,2.72,9,9,0,0,0-2.76,6.62,9.47,9.47,0,0,0,1.27,4.77,8.84,8.84,0,0,0,3.48,3.46A10.42,10.42,0,0,0,503,474.94l2.34,1.55a11.09,11.09,0,0,1-4.41,3.89,13.89,13.89,0,0,1-6.29,1.38,12.34,12.34,0,0,1-9-3.5,11.41,11.41,0,0,1-3.58-8.5,12.32,12.32,0,0,1,1.67-6.25,11.94,11.94,0,0,1,4.6-4.51,13.3,13.3,0,0,1,6.53-1.61,13.76,13.76,0,0,1,4.38.7,12.35,12.35,0,0,1,3.59,1.83A9.89,9.89,0,0,1,505.32,462.8Z"/><path class="cls-1" d="M522.33,449h2.94v13.11a12.69,12.69,0,0,1,3.93-3.57,9.46,9.46,0,0,1,4.65-1.18,8,8,0,0,1,4.55,1.32,7.87,7.87,0,0,1,2.93,3.54,19.06,19.06,0,0,1,.95,7v11.93h-2.95V470.1a28.69,28.69,0,0,0-.31-5.34,6.13,6.13,0,0,0-2-3.47,5.83,5.83,0,0,0-3.77-1.16,7.21,7.21,0,0,0-4.78,1.79,8.43,8.43,0,0,0-2.79,4.43,31.12,31.12,0,0,0-.42,6.31v8.5h-2.94Z"/><path class="cls-1" d="M585.78,449.38h3V458h4.66v2.58h-4.66v20.6h-3v-20.6h-4V458h4Z"/><path class="cls-1" d="M620,457.39a11.28,11.28,0,0,1,8.76,3.87,12.56,12.56,0,0,1-.18,16.86,12,12,0,0,1-17.18,0,12.53,12.53,0,0,1-.18-16.84A11.24,11.24,0,0,1,620,457.39Zm0,2.91a8.45,8.45,0,0,0-6.31,2.75A9.28,9.28,0,0,0,611,469.7a9.54,9.54,0,0,0,1.2,4.69,8.59,8.59,0,0,0,3.25,3.35,9.13,9.13,0,0,0,9,0,8.59,8.59,0,0,0,3.25-3.35,9.54,9.54,0,0,0,1.2-4.69,9.25,9.25,0,0,0-2.64-6.65A8.48,8.48,0,0,0,620,460.3Z"/><path class="cls-1" d="M672,449h2.94v13.11a12.58,12.58,0,0,1,3.93-3.57,9.46,9.46,0,0,1,4.65-1.18,8,8,0,0,1,4.55,1.32,7.87,7.87,0,0,1,2.93,3.54,19.1,19.1,0,0,1,.94,7v11.93H689V470.1a28.69,28.69,0,0,0-.31-5.34,6.13,6.13,0,0,0-2-3.47,5.85,5.85,0,0,0-3.77-1.16,7.21,7.21,0,0,0-4.78,1.79,8.43,8.43,0,0,0-2.79,4.43,31.12,31.12,0,0,0-.42,6.31v8.5H672Z"/><path class="cls-1" d="M728.85,473.47l2.48,1.32a13.49,13.49,0,0,1-2.82,3.92,11,11,0,0,1-3.59,2.27,12.4,12.4,0,0,1-4.53.78,10.86,10.86,0,0,1-8.75-3.72,12.66,12.66,0,0,1-3.15-8.41,12.52,12.52,0,0,1,2.67-7.86,10.88,10.88,0,0,1,9.06-4.38,11.2,11.2,0,0,1,9.34,4.49,12.66,12.66,0,0,1,2.53,7.93H711.51a9.55,9.55,0,0,0,2.55,6.62,8.07,8.07,0,0,0,6.08,2.58,9.69,9.69,0,0,0,3.4-.62,8.88,8.88,0,0,0,2.81-1.63A14.1,14.1,0,0,0,728.85,473.47Zm0-6.24a10,10,0,0,0-1.71-3.82,8.27,8.27,0,0,0-3-2.3,9.05,9.05,0,0,0-3.89-.87,8.32,8.32,0,0,0-5.79,2.19,10,10,0,0,0-2.67,4.8Z"/><path class="cls-1" d="M771.72,458v23.18h-2.9v-4a12.72,12.72,0,0,1-4.16,3.43,11.47,11.47,0,0,1-13.32-2.42,12,12,0,0,1-3.43-8.68,11.85,11.85,0,0,1,3.46-8.57,11.24,11.24,0,0,1,8.35-3.55,10.66,10.66,0,0,1,5.09,1.21,11.67,11.67,0,0,1,4,3.64V458ZM760,460.26a8.77,8.77,0,0,0-4.54,1.23,8.93,8.93,0,0,0-3.3,3.43,9.48,9.48,0,0,0,0,9.36,9,9,0,0,0,3.32,3.48,8.65,8.65,0,0,0,4.49,1.25,9,9,0,0,0,4.57-1.24,8.55,8.55,0,0,0,3.33-3.34,9.57,9.57,0,0,0,1.16-4.74,9.33,9.33,0,0,0-2.61-6.73A8.6,8.6,0,0,0,760,460.26Z"/><path class="cls-1" d="M789.26,449h2.94v32.13h-2.94Z"/><path class="cls-1" d="M812.24,449.38h2.94V458h4.67v2.58h-4.67v20.6h-2.94v-20.6h-4V458h4Z"/><path class="cls-1" d="M835.62,449h3v13.11a12.58,12.58,0,0,1,3.93-3.57,9.39,9.39,0,0,1,4.64-1.18,8,8,0,0,1,4.55,1.32,7.87,7.87,0,0,1,2.93,3.54,19.06,19.06,0,0,1,1,7v11.93h-2.94V470.1a28.4,28.4,0,0,0-.32-5.34,6.08,6.08,0,0,0-2-3.47,5.83,5.83,0,0,0-3.77-1.16,7.21,7.21,0,0,0-4.78,1.79,8.36,8.36,0,0,0-2.78,4.43,31.12,31.12,0,0,0-.42,6.31v8.5h-3Z"/><path class="cls-1" d="M895.43,462.8l-2.34,1.47a9.7,9.7,0,0,0-8.25-4.07,9.48,9.48,0,0,0-6.93,2.72,9,9,0,0,0-2.76,6.62,9.47,9.47,0,0,0,1.27,4.77,8.9,8.9,0,0,0,3.48,3.46,10.42,10.42,0,0,0,13.19-2.83l2.34,1.55a11.09,11.09,0,0,1-4.41,3.89,13.89,13.89,0,0,1-6.29,1.38,12.34,12.34,0,0,1-9-3.5,11.41,11.41,0,0,1-3.58-8.5,12.32,12.32,0,0,1,1.67-6.25,11.94,11.94,0,0,1,4.6-4.51,13.3,13.3,0,0,1,6.53-1.61,13.71,13.71,0,0,1,4.38.7,12.23,12.23,0,0,1,3.59,1.83A9.89,9.89,0,0,1,895.43,462.8Z"/><path class="cls-1" d="M935.22,458v23.18h-2.9v-4a12.59,12.59,0,0,1-4.15,3.43,11.47,11.47,0,0,1-13.32-2.42,12.05,12.05,0,0,1-3.44-8.68,11.86,11.86,0,0,1,3.47-8.57,11.22,11.22,0,0,1,8.34-3.55,10.67,10.67,0,0,1,5.1,1.21,11.64,11.64,0,0,1,4,3.64V458Zm-11.75,2.28a8.77,8.77,0,0,0-4.54,1.23,9,9,0,0,0-3.31,3.43,9.61,9.61,0,0,0-1.22,4.68,9.45,9.45,0,0,0,1.24,4.68,9,9,0,0,0,3.32,3.48,8.61,8.61,0,0,0,4.48,1.25,9,9,0,0,0,4.58-1.24,8.55,8.55,0,0,0,3.33-3.34,9.67,9.67,0,0,0,1.16-4.74A9.33,9.33,0,0,0,929.9,463,8.6,8.6,0,0,0,923.47,460.26Z"/><path class="cls-1" d="M952.09,458h3v3.39a10.5,10.5,0,0,1,2.83-3,5.58,5.58,0,0,1,3.11-1,5.33,5.33,0,0,1,2.61.78l-1.53,2.52a4.1,4.1,0,0,0-1.56-.41,4.22,4.22,0,0,0-2.84,1.23,7.76,7.76,0,0,0-2.08,3.8,37.37,37.37,0,0,0-.54,8v7.84h-3Z"/><path class="cls-1" d="M996.76,473.47l2.48,1.32a13.49,13.49,0,0,1-2.82,3.92,11,11,0,0,1-3.59,2.27,12.35,12.35,0,0,1-4.52.78,10.89,10.89,0,0,1-8.76-3.72,12.66,12.66,0,0,1-3.15-8.41,12.52,12.52,0,0,1,2.67-7.86,10.88,10.88,0,0,1,9.07-4.38,11.21,11.21,0,0,1,9.34,4.49,12.72,12.72,0,0,1,2.52,7.93H979.43a9.5,9.5,0,0,0,2.54,6.62,8.07,8.07,0,0,0,6.08,2.58,9.65,9.65,0,0,0,3.4-.62,8.88,8.88,0,0,0,2.81-1.63A13.83,13.83,0,0,0,996.76,473.47Zm0-6.24a10,10,0,0,0-1.71-3.82,8.18,8.18,0,0,0-3-2.3,9,9,0,0,0-3.89-.87,8.34,8.34,0,0,0-5.79,2.19,10,10,0,0,0-2.67,4.8Z"/></svg>