<svg id="Layer_1" data-name="Layer 1" xmlns="http://www.w3.org/2000/svg" viewBox="0 0 1000 289.96"><defs><style>.cls-1{fill:#10a500;}.cls-2{fill:#6fff90;}</style></defs><path class="cls-1" d="M141,121.6c-7.15,22.16-122.38-.63-118,53.71,2,24.69,33.35,52.71,30.19,56C49.57,235.07-3.42,203.22.17,165.12c2.68-28.31,30.6-41.12,73.54-55.9,17-5.83,50.44-17.35,62.79-3.25C139.64,109.55,142.88,115.86,141,121.6Z"/><ellipse class="cls-1" cx="49.19" cy="174.67" rx="7.83" ry="10.21" transform="translate(-132 184.61) rotate(-77.41)"/><path class="cls-2" d="M163.11,129c-22.76,4.89-60.64-106.3-105.5-75.3-20.38,14.08-29,55.23-33.37,54.12-5.12-1.29-4-63.11,30.76-79,25.85-11.84,50.9,5.94,85.17,35.74,13.53,11.75,40.25,35,34.22,52.74C172.85,121.77,169,127.73,163.11,129Z"/><ellipse class="cls-2" cx="71.23" cy="76" rx="7.83" ry="10.21" transform="translate(-19.48 24.8) rotate(-17.41)"/><path class="cls-1" d="M167.75,151.81c-15.61-17.27,61.74-105.66,12.47-129C157.84,12.19,117.9,25.32,116.66,21c-1.44-5.08,52.64-35,83.83-12.88,23.18,16.47,20.31,47.06,11.64,91.63-3.42,17.59-10.18,52.36-28.57,56C178.88,156.64,171.8,156.29,167.75,151.81Z"/><ellipse class="cls-1" cx="167.71" cy="45.75" rx="10.21" ry="7.83" transform="translate(20.53 138.26) rotate(-47.41)"/><path class="cls-2" d="M150.31,167.24c7.15-22.15,122.38.64,118-53.71-2-24.69-33.35-52.71-30.19-56,3.68-3.79,56.67,28.07,53.07,66.17-2.67,28.3-30.59,41.11-73.53,55.89-16.95,5.83-50.44,17.36-62.79,3.26C151.7,179.29,148.46,173,150.31,167.24Z"/><ellipse class="cls-2" cx="242.14" cy="114.17" rx="7.83" ry="10.21" transform="translate(77.94 325.61) rotate(-77.41)"/><path class="cls-1" d="M128.23,159.85c22.76-4.88,60.63,106.3,105.5,75.31,20.38-14.09,29-55.23,33.37-54.13,5.12,1.29,4,63.11-30.76,79-25.85,11.84-50.91-5.94-85.17-35.74-13.53-11.76-40.25-35-34.22-52.75C118.49,167.08,122.33,161.12,128.23,159.85Z"/><ellipse class="cls-1" cx="220.11" cy="212.85" rx="7.83" ry="10.21" transform="translate(-53.6 75.61) rotate(-17.41)"/><path class="cls-2" d="M123.59,137c15.61,17.27-61.74,105.66-12.47,129,22.38,10.61,62.32-2.52,63.56,1.84,1.44,5.08-52.64,35.05-83.83,12.88-23.18-16.47-20.31-47-11.64-91.63,3.42-17.59,10.18-52.36,28.57-56C112.46,132.21,119.54,132.55,123.59,137Z"/><ellipse class="cls-2" cx="123.63" cy="243.1" rx="10.21" ry="7.83" transform="matrix(0.68, -0.74, 0.74, 0.68, -139.01, 169.6)"/><path class="cls-1" d="M334.86,77.62V2.09h25.71a48.16,48.16,0,0,1,12.5,1.41,23.74,23.74,0,0,1,8.5,4,15.63,15.63,0,0,1,4.87,6.32A21.59,21.59,0,0,1,388,22.2a16.47,16.47,0,0,1-.78,5.09,14.73,14.73,0,0,1-2.39,4.55,18.2,18.2,0,0,1-4.13,3.84,24.62,24.62,0,0,1-5.95,2.92q15.36,3.51,15.36,16.82a21.53,21.53,0,0,1-1.81,8.88,19.54,19.54,0,0,1-5.25,7,24.92,24.92,0,0,1-8.5,4.62A36.58,36.58,0,0,1,363,77.62Zm13.86-42.83H359.8q7.05,0,10.72-2.61t3.65-8.31c0-3.93-1.1-6.74-3.29-8.41S365.24,13,360.57,13H348.72Zm0,9.72V66.66h14.07a19.07,19.07,0,0,0,6.46-1,11.16,11.16,0,0,0,4.18-2.5,9.19,9.19,0,0,0,2.26-3.66,13.77,13.77,0,0,0,.7-4.44,12,12,0,0,0-.77-4.41,8.44,8.44,0,0,0-2.42-3.35A11.35,11.35,0,0,0,369,45.24a23,23,0,0,0-6.23-.73Z"/><path class="cls-1" d="M405.4,77.62V24h7.47a3.93,3.93,0,0,1,2.73.73,4.25,4.25,0,0,1,1,2.51l.77,6.48a25.33,25.33,0,0,1,6.65-7.84A13.88,13.88,0,0,1,432.61,23a10.94,10.94,0,0,1,6.49,1.83l-1.65,9.66a2,2,0,0,1-.67,1.33,2.23,2.23,0,0,1-1.39.39,8.69,8.69,0,0,1-2.11-.36,13.66,13.66,0,0,0-3.56-.37,10.7,10.7,0,0,0-6.8,2.22,17,17,0,0,0-4.79,6.51V77.62Z"/><path class="cls-1" d="M467.08,8.41a7.33,7.33,0,0,1-.67,3.13,8.58,8.58,0,0,1-1.78,2.56,8.21,8.21,0,0,1-2.6,1.75,7.82,7.82,0,0,1-3.19.66,7.53,7.53,0,0,1-3.12-.66,8,8,0,0,1-2.55-1.75,8.44,8.44,0,0,1-1.73-2.56,7.62,7.62,0,0,1-.64-3.13,8.18,8.18,0,0,1,.64-3.24A8.15,8.15,0,0,1,455.72.81a7.52,7.52,0,0,1,3.12-.65A7.81,7.81,0,0,1,462,.81a8.56,8.56,0,0,1,2.6,1.75,8.44,8.44,0,0,1,1.78,2.61A7.87,7.87,0,0,1,467.08,8.41ZM465.17,24V77.62H452.45V24Z"/><path class="cls-1" d="M502,23.09a27.81,27.81,0,0,1,6.39.7,21.46,21.46,0,0,1,5.46,2.07H529v4.8a2.7,2.7,0,0,1-.62,1.88,3.55,3.55,0,0,1-2.11.94l-4.74.89a17.41,17.41,0,0,1,.8,2.88,17.18,17.18,0,0,1,.28,3.18,15.86,15.86,0,0,1-5.9,12.64,20,20,0,0,1-6.54,3.48A26.52,26.52,0,0,1,502,57.77a29.48,29.48,0,0,1-5.83-.57c-1.64,1-2.47,2.16-2.47,3.42A2.51,2.51,0,0,0,495.14,63,11.8,11.8,0,0,0,499,64.09a42,42,0,0,0,5.44.32q3,0,6.24.26a48.68,48.68,0,0,1,6.23.92,17.78,17.78,0,0,1,5.44,2.07,11,11,0,0,1,3.86,3.85,12,12,0,0,1,1.47,6.26A15,15,0,0,1,526,84.69a18.66,18.66,0,0,1-5,6,26.12,26.12,0,0,1-8,4.21,33.65,33.65,0,0,1-10.82,1.6,41.32,41.32,0,0,1-10.46-1.17,24.32,24.32,0,0,1-7.34-3.14A13.53,13.53,0,0,1,480,87.65a10.69,10.69,0,0,1-1.44-5.32A9.18,9.18,0,0,1,480.79,76a15.48,15.48,0,0,1,6.29-4.08A8.76,8.76,0,0,1,483.93,69a8.63,8.63,0,0,1-1.18-4.76,7.9,7.9,0,0,1,.41-2.48,9.64,9.64,0,0,1,1.26-2.53,12.42,12.42,0,0,1,2.14-2.38,14.58,14.58,0,0,1,3-2A16.72,16.72,0,0,1,483.29,49,15.77,15.77,0,0,1,481,40.43,15.82,15.82,0,0,1,487,27.76a19.88,19.88,0,0,1,6.64-3.47A28,28,0,0,1,502,23.09Zm14,56.79a3.73,3.73,0,0,0-.93-2.62,6,6,0,0,0-2.52-1.57,17.89,17.89,0,0,0-3.74-.83,36.12,36.12,0,0,0-4.53-.26h-4.95a21,21,0,0,1-4.92-.58,11.58,11.58,0,0,0-3.48,2.85,5.91,5.91,0,0,0-1.31,3.78,5.28,5.28,0,0,0,.69,2.64,5.91,5.91,0,0,0,2.22,2.12,13.08,13.08,0,0,0,3.94,1.38,30.17,30.17,0,0,0,5.93.5,29.45,29.45,0,0,0,6.13-.56,14.28,14.28,0,0,0,4.25-1.55,6.6,6.6,0,0,0,2.45-2.34A6,6,0,0,0,515.93,79.88ZM502,49.52a11.92,11.92,0,0,0,4.12-.65,8.17,8.17,0,0,0,2.91-1.8,7.44,7.44,0,0,0,1.75-2.77,10.17,10.17,0,0,0,.6-3.55,8.49,8.49,0,0,0-2.35-6.3c-1.56-1.55-3.91-2.32-7-2.32s-5.47.77-7,2.32a8.48,8.48,0,0,0-2.34,6.3,10.24,10.24,0,0,0,.59,3.5A7.73,7.73,0,0,0,494.93,47a8.08,8.08,0,0,0,2.94,1.83A12,12,0,0,0,502,49.52Z"/><path class="cls-1" d="M541.13,77.62V0h12.73V29.83a26.71,26.71,0,0,1,6.8-4.81,19.44,19.44,0,0,1,8.71-1.83,18.82,18.82,0,0,1,7.68,1.49,15.38,15.38,0,0,1,5.59,4.18,18.72,18.72,0,0,1,3.4,6.43,27.72,27.72,0,0,1,1.16,8.22V77.62H574.47V43.51q0-4.9-2.24-7.6t-6.73-2.69a13.08,13.08,0,0,0-6.18,1.52,21.73,21.73,0,0,0-5.46,4.13V77.62Z"/><path class="cls-1" d="M621.21,78.46q-6.86,0-10.57-3.94t-3.71-10.89V33.69h-5.36A2.5,2.5,0,0,1,599.8,33a2.6,2.6,0,0,1-.75-2V25.86l8.5-1.41,2.68-14.63a2.6,2.6,0,0,1,.95-1.62,3,3,0,0,1,1.88-.57h6.6V24.5h13.91v9.19H619.66V62.74a5.74,5.74,0,0,0,1.24,3.92,4.15,4.15,0,0,0,3.29,1.41,6,6,0,0,0,2-.29,10.91,10.91,0,0,0,1.39-.6c.39-.21.75-.41,1.06-.6a1.77,1.77,0,0,1,.92-.29,1.46,1.46,0,0,1,.93.29,4.23,4.23,0,0,1,.77.86l3.82,6.27a19.39,19.39,0,0,1-6.39,3.55A23.56,23.56,0,0,1,621.21,78.46Z"/><path class="cls-1" d="M662.43,66h29.84V77.62h-43.7V2.09h13.86Z"/><path class="cls-1" d="M720.71,8.41a7.33,7.33,0,0,1-.67,3.13,8.58,8.58,0,0,1-1.78,2.56,8.21,8.21,0,0,1-2.6,1.75,7.83,7.83,0,0,1-3.2.66,7.52,7.52,0,0,1-3.11-.66,8,8,0,0,1-2.55-1.75,8.44,8.44,0,0,1-1.73-2.56,7.62,7.62,0,0,1-.64-3.13,8.18,8.18,0,0,1,.64-3.24A8.15,8.15,0,0,1,709.35.81a7.51,7.51,0,0,1,3.11-.65,7.83,7.83,0,0,1,3.2.65,8.56,8.56,0,0,1,2.6,1.75A8.44,8.44,0,0,1,720,5.17,7.87,7.87,0,0,1,720.71,8.41ZM718.8,24V77.62H706.08V24Z"/><path class="cls-1" d="M739.57,77.62V33.75L735,33a4.82,4.82,0,0,1-2.39-1,2.74,2.74,0,0,1-.9-2.19V24.5h7.88v-4a23.21,23.21,0,0,1,1.37-8.25,17.21,17.21,0,0,1,3.91-6.22,17,17,0,0,1,6.21-3.92A23.71,23.71,0,0,1,759.31.78a22.27,22.27,0,0,1,6.8,1l-.26,6.47a1.87,1.87,0,0,1-1.39,1.88,10.77,10.77,0,0,1-3,.37,15.17,15.17,0,0,0-4.05.5,6.8,6.8,0,0,0-3,1.72A7.91,7.91,0,0,0,752.53,16a16.54,16.54,0,0,0-.64,5V24.5h13.75v9.19H752.3V77.62Z"/><path class="cls-1" d="M799.4,23.19a25.32,25.32,0,0,1,9.19,1.62,20.09,20.09,0,0,1,7.24,4.73,21.56,21.56,0,0,1,4.74,7.63,29,29,0,0,1,1.7,10.31,20.21,20.21,0,0,1-.12,2.43,3.9,3.9,0,0,1-.47,1.52,1.9,1.9,0,0,1-.9.78,3.73,3.73,0,0,1-1.44.24H786.67c.38,5.5,1.83,9.54,4.38,12.12a13.57,13.57,0,0,0,10.1,3.86,17.16,17.16,0,0,0,5.33-.73,25.21,25.21,0,0,0,3.92-1.62c1.11-.59,2.09-1.13,2.93-1.62a4.88,4.88,0,0,1,2.45-.73,2.71,2.71,0,0,1,1.34.31,3,3,0,0,1,1,.89l3.71,4.7a21.4,21.4,0,0,1-4.74,4.21,26.43,26.43,0,0,1-5.49,2.71A29.65,29.65,0,0,1,805.76,78a41,41,0,0,1-5.75.42,27.82,27.82,0,0,1-10.25-1.86,22.9,22.9,0,0,1-8.25-5.48,25.89,25.89,0,0,1-5.51-9,35.13,35.13,0,0,1-2-12.4,30,30,0,0,1,1.75-10.32,25,25,0,0,1,5-8.41,23.82,23.82,0,0,1,8-5.67A26.08,26.08,0,0,1,799.4,23.19Zm.25,9.25q-5.56,0-8.71,3.19t-4,9h23.91a16.47,16.47,0,0,0-.67-4.72A11.07,11.07,0,0,0,808.1,36a9.66,9.66,0,0,0-3.5-2.63A11.72,11.72,0,0,0,799.65,32.44Z"/><path class="cls-1" d="M381.85,110.28v11.18h-33V142.4h26v10.82h-26v21.36h33v11.23h-47V110.28Z"/><path class="cls-1" d="M397.26,185.81V132.22H405a3.13,3.13,0,0,1,3.25,2.35l.87,4.23a28.2,28.2,0,0,1,3.38-3,23,23,0,0,1,3.76-2.35,19.15,19.15,0,0,1,4.25-1.52,22.52,22.52,0,0,1,4.95-.52,18.82,18.82,0,0,1,7.68,1.49,15.27,15.27,0,0,1,5.59,4.18,18.42,18.42,0,0,1,3.4,6.42,27.79,27.79,0,0,1,1.16,8.23v34.11H430.6V151.7c0-3.27-.75-5.81-2.24-7.6s-3.74-2.69-6.73-2.69a13.08,13.08,0,0,0-6.18,1.52,22.29,22.29,0,0,0-5.46,4.12v38.76Z"/><path class="cls-1" d="M460,185.81V108.19H472.7V138a27.09,27.09,0,0,1,6.8-4.8,19.5,19.5,0,0,1,8.71-1.83,18.79,18.79,0,0,1,7.68,1.49,15.27,15.27,0,0,1,5.59,4.18,18.42,18.42,0,0,1,3.4,6.42A27.79,27.79,0,0,1,506,151.7v34.11H493.31V151.7c0-3.27-.75-5.81-2.24-7.6s-3.74-2.69-6.72-2.69a13.15,13.15,0,0,0-6.19,1.52,22.29,22.29,0,0,0-5.46,4.12v38.76Z"/><path class="cls-1" d="M564.11,185.81h-5.72a6,6,0,0,1-2.83-.55A3.51,3.51,0,0,1,554,183l-1.13-3.81a42.82,42.82,0,0,1-3.94,3.21,23.51,23.51,0,0,1-4,2.33,20.21,20.21,0,0,1-4.38,1.41,26.19,26.19,0,0,1-5.15.47,20,20,0,0,1-6.18-.92,13.31,13.31,0,0,1-4.87-2.75,12.34,12.34,0,0,1-3.17-4.56,16.35,16.35,0,0,1-1.13-6.34,12.62,12.62,0,0,1,1.57-6,14.82,14.82,0,0,1,5.23-5.35,33.11,33.11,0,0,1,9.74-4,61.73,61.73,0,0,1,15.09-1.57V152c0-3.61-.74-6.29-2.24-8a8.11,8.11,0,0,0-6.52-2.61,15.53,15.53,0,0,0-5.15.73,19.94,19.94,0,0,0-3.58,1.65c-1,.61-2,1.16-2.81,1.64a5.6,5.6,0,0,1-2.83.73,3.67,3.67,0,0,1-2.22-.67,5.33,5.33,0,0,1-1.49-1.68l-2.32-4.12a31.16,31.16,0,0,1,22-8.47,21,21,0,0,1,8.27,1.55,17.45,17.45,0,0,1,6.16,4.28,18.5,18.5,0,0,1,3.84,6.55,25.45,25.45,0,0,1,1.31,8.36Zm-24.73-8a17,17,0,0,0,3.61-.36,13.63,13.63,0,0,0,3.11-1.08,16.18,16.18,0,0,0,2.84-1.78,24.66,24.66,0,0,0,2.75-2.49v-9a51.29,51.29,0,0,0-9.3.71,24.45,24.45,0,0,0-6,1.81,7.83,7.83,0,0,0-3.22,2.58,5.74,5.74,0,0,0-.95,3.21q0,3.42,2,4.89A8.42,8.42,0,0,0,539.38,177.77Z"/><path class="cls-1" d="M580.76,185.81V132.22h7.78a3.12,3.12,0,0,1,3.24,2.35l.88,4.23a27.45,27.45,0,0,1,3.38-3,23,23,0,0,1,3.76-2.35,19.15,19.15,0,0,1,4.25-1.52,22.52,22.52,0,0,1,5-.52,18.74,18.74,0,0,1,7.67,1.49,15.1,15.1,0,0,1,5.59,4.18,18.43,18.43,0,0,1,3.41,6.42,27.79,27.79,0,0,1,1.16,8.23v34.11H614.1V151.7c0-3.27-.75-5.81-2.24-7.6s-3.74-2.69-6.73-2.69a13.08,13.08,0,0,0-6.18,1.52,21.92,21.92,0,0,0-5.46,4.12v38.76Z"/><path class="cls-1" d="M680.62,143.55a6.46,6.46,0,0,1-1.11,1.15,2.51,2.51,0,0,1-1.57.42,3.43,3.43,0,0,1-1.9-.6c-.62-.4-1.36-.85-2.22-1.36a16.68,16.68,0,0,0-3.07-1.36,13.87,13.87,0,0,0-4.4-.6,13.32,13.32,0,0,0-5.88,1.23,11.24,11.24,0,0,0-4.2,3.52,16,16,0,0,0-2.49,5.57,30.25,30.25,0,0,0-.83,7.39,29.42,29.42,0,0,0,.9,7.63,16.37,16.37,0,0,0,2.6,5.61,11.19,11.19,0,0,0,4.13,3.45,12.37,12.37,0,0,0,5.46,1.18A13.44,13.44,0,0,0,671,176a15.82,15.82,0,0,0,3.17-1.67c.86-.61,1.61-1.17,2.24-1.68a3.38,3.38,0,0,1,2.14-.75,2.58,2.58,0,0,1,2.32,1.2l3.66,4.7A23.48,23.48,0,0,1,679.9,182a24.8,24.8,0,0,1-5.13,2.71,25.88,25.88,0,0,1-5.48,1.44,38.37,38.37,0,0,1-5.62.42,23.05,23.05,0,0,1-9.22-1.86,21.35,21.35,0,0,1-7.55-5.41,26.08,26.08,0,0,1-5.11-8.69,37,37,0,0,1-.2-22.67,24.92,24.92,0,0,1,4.92-8.73,22.51,22.51,0,0,1,8-5.77,27.4,27.4,0,0,1,11-2.09A26,26,0,0,1,676,133.31a25.44,25.44,0,0,1,8,5.54Z"/><path class="cls-1" d="M718.6,131.38a25.37,25.37,0,0,1,9.2,1.62,20.18,20.18,0,0,1,7.24,4.73,21.8,21.8,0,0,1,4.74,7.62,29.31,29.31,0,0,1,1.7,10.32,18.1,18.1,0,0,1-.13,2.43,4.08,4.08,0,0,1-.46,1.52,2,2,0,0,1-.91.78,3.71,3.71,0,0,1-1.44.23H705.87q.57,8.26,4.38,12.12a13.54,13.54,0,0,0,10.1,3.87,17.16,17.16,0,0,0,5.33-.73,25.21,25.21,0,0,0,3.92-1.62q1.68-.89,2.94-1.62a4.86,4.86,0,0,1,2.45-.73,2.73,2.73,0,0,1,1.34.31,3,3,0,0,1,1,.89l3.71,4.7a21.2,21.2,0,0,1-4.74,4.21,26.6,26.6,0,0,1-5.48,2.71,29.75,29.75,0,0,1-5.83,1.44,40.86,40.86,0,0,1-5.74.42A27.84,27.84,0,0,1,709,184.74a22.78,22.78,0,0,1-8.24-5.48,25.76,25.76,0,0,1-5.52-9,35.17,35.17,0,0,1-2-12.4A30,30,0,0,1,695,147.55a24.72,24.72,0,0,1,5-8.41,23.49,23.49,0,0,1,8-5.67A26,26,0,0,1,718.6,131.38Zm.26,9.25c-3.71,0-6.62,1.06-8.71,3.18s-3.44,5.14-4,9H730a16.54,16.54,0,0,0-.67-4.73,11,11,0,0,0-2.06-3.89,9.92,9.92,0,0,0-3.51-2.64A11.8,11.8,0,0,0,718.86,140.63Z"/><path class="cls-1" d="M756,185.81V132.22h7.78a3.12,3.12,0,0,1,3.24,2.35l.83,4a30.36,30.36,0,0,1,2.91-2.88,17.9,17.9,0,0,1,3.25-2.24,17.33,17.33,0,0,1,3.71-1.49,16.09,16.09,0,0,1,4.35-.55,12.29,12.29,0,0,1,8.22,2.74,16.57,16.57,0,0,1,4.82,7.29,16.12,16.12,0,0,1,3.09-4.57,16.94,16.94,0,0,1,4.07-3.11A18.5,18.5,0,0,1,807,132a21.91,21.91,0,0,1,5-.58,20.77,20.77,0,0,1,7.78,1.36,15,15,0,0,1,5.72,4,17.5,17.5,0,0,1,3.53,6.37,28,28,0,0,1,1.21,8.62v34.11H817.48V151.7q0-5.12-2.21-7.7c-1.48-1.73-3.64-2.59-6.5-2.59a9.65,9.65,0,0,0-3.63.68,8.71,8.71,0,0,0-2.94,2,8.91,8.91,0,0,0-2,3.21,12.68,12.68,0,0,0-.72,4.44v34.11H786.72V151.7q0-5.38-2.14-7.83c-1.42-1.64-3.53-2.46-6.31-2.46a10.13,10.13,0,0,0-5.13,1.38,17.59,17.59,0,0,0-4.46,3.79v39.23Z"/><path class="cls-1" d="M868.7,131.38a25.33,25.33,0,0,1,9.2,1.62,20.18,20.18,0,0,1,7.24,4.73,21.51,21.51,0,0,1,4.74,7.62,29.08,29.08,0,0,1,1.7,10.32,18.1,18.1,0,0,1-.13,2.43,3.9,3.9,0,0,1-.46,1.52,1.9,1.9,0,0,1-.9.78,3.75,3.75,0,0,1-1.44.23H856q.56,8.26,4.38,12.12a13.53,13.53,0,0,0,10.1,3.87,17.16,17.16,0,0,0,5.33-.73,25.63,25.63,0,0,0,3.92-1.62c1.11-.59,2.09-1.13,2.93-1.62a4.86,4.86,0,0,1,2.45-.73,2.71,2.71,0,0,1,1.34.31,3.06,3.06,0,0,1,1,.89l3.71,4.7a21.65,21.65,0,0,1-4.74,4.21,26.43,26.43,0,0,1-5.49,2.71,29.83,29.83,0,0,1-5.82,1.44,41,41,0,0,1-5.75.42,27.82,27.82,0,0,1-10.25-1.86,22.9,22.9,0,0,1-8.25-5.48,25.89,25.89,0,0,1-5.51-9,35.17,35.17,0,0,1-2-12.4,30,30,0,0,1,1.75-10.32,24.74,24.74,0,0,1,5-8.41,23.55,23.55,0,0,1,8-5.67A26.07,26.07,0,0,1,868.7,131.38Zm.26,9.25q-5.57,0-8.71,3.18t-4,9h23.91a16.19,16.19,0,0,0-.67-4.73,10.85,10.85,0,0,0-2.06-3.89,9.88,9.88,0,0,0-3.5-2.64A11.88,11.88,0,0,0,869,140.63Z"/><path class="cls-1" d="M906.06,185.81V132.22h7.78a3.13,3.13,0,0,1,3.25,2.35l.87,4.23a28.2,28.2,0,0,1,3.38-3,23,23,0,0,1,3.76-2.35,19.15,19.15,0,0,1,4.25-1.52,22.52,22.52,0,0,1,4.95-.52,18.79,18.79,0,0,1,7.68,1.49,15.27,15.27,0,0,1,5.59,4.18,18.42,18.42,0,0,1,3.4,6.42,27.79,27.79,0,0,1,1.16,8.23v34.11H939.4V151.7c0-3.27-.75-5.81-2.24-7.6s-3.74-2.69-6.72-2.69a13.12,13.12,0,0,0-6.19,1.52,22.29,22.29,0,0,0-5.46,4.12v38.76Z"/><path class="cls-1" d="M986.14,186.65q-6.85,0-10.57-4c-2.47-2.62-3.7-6.26-3.7-10.89V141.88h-5.36a2.57,2.57,0,0,1-1.78-.68,2.61,2.61,0,0,1-.75-2V134l8.5-1.41L975.16,118a2.59,2.59,0,0,1,1-1.62,3,3,0,0,1,1.88-.58h6.59v16.88h13.92v9.19H984.59v29a5.76,5.76,0,0,0,1.24,3.92,4.16,4.16,0,0,0,3.3,1.41,5.93,5.93,0,0,0,2-.28,11.71,11.71,0,0,0,1.39-.61,11.14,11.14,0,0,0,1.06-.6,1.76,1.76,0,0,1,.93-.28,1.44,1.44,0,0,1,.92.28,4.65,4.65,0,0,1,.78.87l3.81,6.27a19.39,19.39,0,0,1-6.39,3.55A23.51,23.51,0,0,1,986.14,186.65Z"/><path class="cls-1" d="M381.66,226.56a5,5,0,0,1-1.35,1.61,3,3,0,0,1-1.77.5,4.54,4.54,0,0,1-2.41-.82c-.86-.54-1.89-1.15-3.09-1.82a25.66,25.66,0,0,0-4.21-1.83,17.83,17.83,0,0,0-5.68-.82,16.79,16.79,0,0,0-5.18.72,10.69,10.69,0,0,0-3.73,2,7.88,7.88,0,0,0-2.25,3,10.06,10.06,0,0,0-.74,3.89,6.7,6.7,0,0,0,1.51,4.49,12.53,12.53,0,0,0,4,3.07,36.63,36.63,0,0,0,5.66,2.27q3.16,1,6.5,2.15a61.14,61.14,0,0,1,6.51,2.64,22.32,22.32,0,0,1,5.66,3.81,17.4,17.4,0,0,1,4,5.63,19.64,19.64,0,0,1,1.5,8.09,26.33,26.33,0,0,1-1.77,9.7,22.38,22.38,0,0,1-5.18,7.88,24.4,24.4,0,0,1-8.33,5.29A30.58,30.58,0,0,1,360,290a36.75,36.75,0,0,1-7.19-.71,38.21,38.21,0,0,1-6.8-2,36.77,36.77,0,0,1-6.11-3.17,29.63,29.63,0,0,1-5.07-4.13l4.18-6.82a4.43,4.43,0,0,1,1.37-1.24,3.4,3.4,0,0,1,1.8-.5,5,5,0,0,1,2.85,1.08c1,.72,2.24,1.53,3.65,2.41a28.54,28.54,0,0,0,5,2.4,18.81,18.81,0,0,0,6.79,1.09q6.09,0,9.41-2.88c2.22-1.93,3.34-4.68,3.34-8.28a7.72,7.72,0,0,0-1.51-4.92,12.36,12.36,0,0,0-4-3.2,30.35,30.35,0,0,0-5.66-2.19q-3.18-.9-6.45-2a53.6,53.6,0,0,1-6.45-2.54,20.49,20.49,0,0,1-5.66-3.86,17.55,17.55,0,0,1-4-5.95,22.74,22.74,0,0,1-1.5-8.8,20.79,20.79,0,0,1,1.66-8.14,21.12,21.12,0,0,1,4.84-7,24,24,0,0,1,7.83-4.92A28.8,28.8,0,0,1,363,211.8a35.69,35.69,0,0,1,12.48,2.12,28.12,28.12,0,0,1,9.73,5.92Z"/><path class="cls-1" d="M408.47,263.63a25.42,25.42,0,0,0,1.48,7.21,14.63,14.63,0,0,0,3.06,5,12,12,0,0,0,4.53,3,16.43,16.43,0,0,0,5.79,1,18,18,0,0,0,5.47-.74,26.58,26.58,0,0,0,4-1.64c1.14-.6,2.15-1.15,3-1.64a5.11,5.11,0,0,1,2.51-.74,2.71,2.71,0,0,1,2.44,1.21l3.75,4.76a21.48,21.48,0,0,1-4.86,4.26A27.4,27.4,0,0,1,434,288a31.25,31.25,0,0,1-6,1.46,43.11,43.11,0,0,1-5.9.42A29,29,0,0,1,411.64,288a23.58,23.58,0,0,1-8.46-5.55,25.9,25.9,0,0,1-5.66-9.1,35.3,35.3,0,0,1-2.06-12.56,30,30,0,0,1,1.8-10.44,24.89,24.89,0,0,1,5.15-8.51,24.19,24.19,0,0,1,8.2-5.74A27,27,0,0,1,421.53,234a26.59,26.59,0,0,1,9.46,1.64,20.72,20.72,0,0,1,7.46,4.79,22.16,22.16,0,0,1,4.89,7.72,28.78,28.78,0,0,1,1.77,10.44,8.56,8.56,0,0,1-.63,4,2.66,2.66,0,0,1-2.43,1Zm24.9-7.88a15.59,15.59,0,0,0-.71-4.79,11.47,11.47,0,0,0-2.14-3.94,9.91,9.91,0,0,0-3.62-2.67,12.52,12.52,0,0,0-5.11-1q-5.66,0-8.91,3.23t-4.15,9.15Z"/><path class="cls-1" d="M468.91,244.27a23.35,23.35,0,0,1,6-7.64,12.83,12.83,0,0,1,8.25-2.78,10.13,10.13,0,0,1,6,1.64l-.85,9.79a2.57,2.57,0,0,1-.77,1.35,2.13,2.13,0,0,1-1.35.39,16.21,16.21,0,0,1-2.35-.26,17.78,17.78,0,0,0-3-.27,10.81,10.81,0,0,0-3.86.64,9.69,9.69,0,0,0-3,1.82,12.78,12.78,0,0,0-2.38,2.88,28.32,28.32,0,0,0-1.93,3.86v33.42H456.59V234.86h7.67a3.16,3.16,0,0,1,3.86,3.28Z"/><path class="cls-1" d="M553,234.86l-21.52,54.25H519.62L498.1,234.86h10.79a4.14,4.14,0,0,1,2.45.69,3.21,3.21,0,0,1,1.3,1.74l10.47,29c.56,1.69,1.06,3.35,1.48,5s.79,3.24,1.11,4.87q.52-2.44,1.16-4.87t1.54-5l10.68-29a3.63,3.63,0,0,1,1.32-1.74,3.78,3.78,0,0,1,2.28-.69Z"/><path class="cls-1" d="M576.94,219.05a7.55,7.55,0,0,1-.68,3.17,8.66,8.66,0,0,1-4.5,4.36,8.18,8.18,0,0,1-3.28.66,7.9,7.9,0,0,1-3.2-.66,8.49,8.49,0,0,1-4.39-4.36,7.69,7.69,0,0,1-.66-3.17,8.18,8.18,0,0,1,.66-3.28,8.33,8.33,0,0,1,4.39-4.42,7.9,7.9,0,0,1,3.2-.66,8.18,8.18,0,0,1,3.28.66,9,9,0,0,1,2.67,1.77,8.71,8.71,0,0,1,1.83,2.65A8,8,0,0,1,576.94,219.05Zm-1.79,15.81v54.25H562V234.86Z"/><path class="cls-1" d="M629,246.33a6.38,6.38,0,0,1-1.14,1.17,2.64,2.64,0,0,1-1.61.42,3.58,3.58,0,0,1-2-.61c-.63-.4-1.39-.86-2.27-1.37a17.27,17.27,0,0,0-3.15-1.38,14.57,14.57,0,0,0-4.52-.61,13.79,13.79,0,0,0-6,1.25,11.54,11.54,0,0,0-4.31,3.57,16.12,16.12,0,0,0-2.56,5.63,29.94,29.94,0,0,0-.85,7.48,29.17,29.17,0,0,0,.93,7.72,16.31,16.31,0,0,0,2.67,5.69,11.54,11.54,0,0,0,4.23,3.49,12.86,12.86,0,0,0,5.61,1.19,13.87,13.87,0,0,0,5-.77,16.18,16.18,0,0,0,3.26-1.69c.88-.62,1.64-1.18,2.3-1.69a3.41,3.41,0,0,1,2.19-.77,2.65,2.65,0,0,1,2.38,1.21L633,281a23.42,23.42,0,0,1-4.71,4.26A25.43,25.43,0,0,1,623,288a27.25,27.25,0,0,1-5.61,1.46,39.69,39.69,0,0,1-5.74.42,24.09,24.09,0,0,1-9.46-1.88,22.28,22.28,0,0,1-7.77-5.47,26,26,0,0,1-5.27-8.81,34.16,34.16,0,0,1-1.93-11.87A34.73,34.73,0,0,1,589,250.8a25.23,25.23,0,0,1,5-8.83,23.19,23.19,0,0,1,8.25-5.84A28.43,28.43,0,0,1,613.59,234a27,27,0,0,1,10.65,2,25.85,25.85,0,0,1,8.23,5.61Z"/><path class="cls-1" d="M654,263.63a25.77,25.77,0,0,0,1.48,7.21,14.81,14.81,0,0,0,3.07,5,12,12,0,0,0,4.52,3,16.51,16.51,0,0,0,5.79,1,18,18,0,0,0,5.47-.74,25.75,25.75,0,0,0,4-1.64c1.15-.6,2.15-1.15,3-1.64a5.08,5.08,0,0,1,2.51-.74,2.7,2.7,0,0,1,2.43,1.21l3.76,4.76a21.52,21.52,0,0,1-4.87,4.26,27.15,27.15,0,0,1-5.63,2.75,31.33,31.33,0,0,1-6,1.46,43.22,43.22,0,0,1-5.9.42A29,29,0,0,1,657.22,288a23.53,23.53,0,0,1-8.47-5.55,26,26,0,0,1-5.65-9.1A35.07,35.07,0,0,1,641,260.82a30,30,0,0,1,1.8-10.44,25.07,25.07,0,0,1,5.16-8.51,24.25,24.25,0,0,1,8.19-5.74A27,27,0,0,1,667.1,234a26.64,26.64,0,0,1,9.47,1.64,20.72,20.72,0,0,1,7.46,4.79,22.16,22.16,0,0,1,4.89,7.72,28.78,28.78,0,0,1,1.77,10.44,8.56,8.56,0,0,1-.63,4,2.66,2.66,0,0,1-2.44,1ZM679,255.75a15.9,15.9,0,0,0-.71-4.79,11.33,11.33,0,0,0-2.15-3.94,9.91,9.91,0,0,0-3.62-2.67,12.44,12.44,0,0,0-5.1-1q-5.65,0-8.91,3.23t-4.15,9.15Z"/><path class="cls-1" d="M737.38,245.44a3.49,3.49,0,0,1-1.11,1.19,3,3,0,0,1-1.48.34,4.69,4.69,0,0,1-2-.53c-.73-.35-1.56-.75-2.52-1.19a22.5,22.5,0,0,0-3.25-1.19,15.67,15.67,0,0,0-4.31-.53,9.93,9.93,0,0,0-6,1.64,5.09,5.09,0,0,0-2.2,4.28,4.08,4.08,0,0,0,1.14,2.94,10.32,10.32,0,0,0,3,2.09,28.58,28.58,0,0,0,4.26,1.61q2.38.72,4.84,1.56c1.64.56,3.25,1.21,4.84,1.93a17.19,17.19,0,0,1,4.26,2.75,12.81,12.81,0,0,1,3,4,12.64,12.64,0,0,1,1.14,5.61,18.23,18.23,0,0,1-1.41,7.22,15.54,15.54,0,0,1-4.15,5.71,19.66,19.66,0,0,1-6.79,3.75,29.51,29.51,0,0,1-9.34,1.35,30,30,0,0,1-5.47-.5,32.81,32.81,0,0,1-5.13-1.4,28.84,28.84,0,0,1-4.55-2.12,22.27,22.27,0,0,1-3.67-2.64l3-5a4.32,4.32,0,0,1,1.38-1.38,3.93,3.93,0,0,1,2-.47,4.28,4.28,0,0,1,2.3.68c.72.46,1.56,1,2.51,1.48a21.34,21.34,0,0,0,3.36,1.48,14.66,14.66,0,0,0,4.89.69,12.69,12.69,0,0,0,4-.55,8.42,8.42,0,0,0,2.75-1.46,5.5,5.5,0,0,0,1.59-2.09,6.31,6.31,0,0,0,.5-2.45,4.38,4.38,0,0,0-1.14-3.12,9.72,9.72,0,0,0-3-2.12,28.45,28.45,0,0,0-4.28-1.61q-2.41-.72-4.92-1.56a45.59,45.59,0,0,1-4.92-2,16.41,16.41,0,0,1-4.28-2.88,12.94,12.94,0,0,1-3-4.28,14.93,14.93,0,0,1-1.13-6.14,15.63,15.63,0,0,1,1.32-6.34,14.85,14.85,0,0,1,3.88-5.26,19.37,19.37,0,0,1,6.4-3.6,26.66,26.66,0,0,1,8.86-1.35,27.21,27.21,0,0,1,10.21,1.85,23.14,23.14,0,0,1,7.66,4.87Z"/></svg>